<svg xmlns="http://www.w3.org/2000/svg" fill="none" viewBox="0 0 64 64" id="pen">
  <path fill="url(#paint0_linear_3501_964)" fill-rule="evenodd" d="M59.6295 4.37054C56.4687 1.20982 51.3442 1.20982 48.1835 4.37054L20.4739 32.0801C19.5221 33.0319 18.9575 34.2985 18.8814 35.6351L16.077 45.4506C15.8774 46.1489 16.0722 46.9006 16.5858 47.4142C17.0994 47.9278 17.8511 48.1226 18.5494 47.923L28.3649 45.1186C29.7015 45.0425 30.9681 44.4779 31.9199 43.5261L59.6295 15.8165C62.7902 12.6558 62.7902 7.53126 59.6295 4.37054ZM20.912 43.088L21.8618 39.7639L24.2361 42.1382L20.912 43.088ZM29.0914 40.6977C28.9819 40.8072 28.8569 40.8976 28.7215 40.9668L23.0332 35.2785C23.1024 35.1431 23.1928 35.0181 23.3023 34.9086L47.4433 10.7676L53.2324 16.5567L29.0914 40.6977ZM56.0609 13.7283L50.2717 7.93914L51.0119 7.19897C52.6105 5.60034 55.2024 5.60034 56.801 7.19897C58.3997 8.79759 58.3997 11.3895 56.801 12.9881L56.0609 13.7283Z" clip-rule="evenodd"></path>
  <path fill="url(#paint1_linear_3501_964)" d="M10 62C5.58172 62 2 58.4183 2 54C2 49.5817 5.58172 46 10 46H11C12.1046 46 13 46.8954 13 48C13 49.1046 12.1046 50 11 50H10C7.79086 50 6 51.7909 6 54C6 56.2091 7.79086 58 10 58H48C49.1046 58 50 58.8954 50 60C50 61.1046 49.1046 62 48 62H10Z"></path>
  <defs>
    <linearGradient id="paint0_linear_3501_964" x1="9.5" x2="48" y1="2" y2="52" gradientUnits="userSpaceOnUse">
      <stop stop-color="#12faeb" class="stopColorfa1228 svgShape"></stop>
      <stop offset=".901" stop-color="#00aa9f" class="stopColor5a00d1 svgShape"></stop>
    </linearGradient>
    <linearGradient id="paint1_linear_3501_964" x1="9.5" x2="48" y1="2" y2="52" gradientUnits="userSpaceOnUse">
      <stop stop-color="#12faeb" class="stopColorfa1228 svgShape"></stop>
      <stop offset=".901" stop-color="#00aa9f" class="stopColor5a00d1 svgShape"></stop>
    </linearGradient>
  </defs>
</svg>
