<svg xmlns="http://www.w3.org/2000/svg" fill="none" viewBox="0 0 24 24" id="donate">
  <path fill="#00aa9f" fill-rule="evenodd" d="M12 3a9 9 0 1 0 0 18 9 9 0 0 0 0-18ZM1 12C1 5.925 5.925 1 12 1s11 4.925 11 11-4.925 11-11 11S1 18.075 1 12Z" clip-rule="evenodd" class="color000000 svgShape"></path>
  <path fill="#00aa9f" fill-rule="evenodd" d="M8.778 9.556a3 3 0 0 1 3-3h.444a3 3 0 0 1 3 3v.222h-2v-.222a1 1 0 0 0-1-1h-.444a1 1 0 0 0-1 1v.097a1 1 0 0 0 .553.894l2.233 1.117a3 3 0 0 1 1.658 2.683v.097a3 3 0 0 1-3 3h-.444a3 3 0 0 1-3-3v-.222h2v.222a1 1 0 0 0 1 1h.444a1 1 0 0 0 1-1v-.097a1 1 0 0 0-.553-.894l-2.233-1.117a3 3 0 0 1-1.658-2.683v-.097Z" clip-rule="evenodd" class="color000000 svgShape"></path>
  <path fill="#00aa9f" fill-rule="evenodd" d="M13 5.333v2.223h-2V5.333h2zm0 11.111v2.223h-2v-2.223h2z" clip-rule="evenodd" class="color000000 svgShape"></path>
</svg>
