<svg xmlns="http://www.w3.org/2000/svg" enable-background="new 0 0 24 24" viewBox="0 0 24 24" id="tor">
  <path d="M12.47,19.089c0.002,0.01,0.003,0.021,0.005,0.032c0.001,0.002,0.001,0.005,0.002,0.007L12.47,19.089z"></path>
  <path d="M9.842,9.877c-1.153,0.783-2.815,1.788-3.658,2.659c-1.596,1.654-2.061,3.218-1.905,5.296c0.156,2.66,2.084,4.873,4.632,5.744C10.041,23.956,11.083,24,12.235,24c1.862,0,3.768-0.491,5.165-1.676c1.436-1.207,2.345-3.009,2.35-5.026v-0.001c0-0.007,0-0.014,0-0.022c0-2.007-0.853-3.813-2.213-5.069l-0.005-0.005c-0.754-0.692-1.707-1.251-2.682-1.81c-0.442-0.246-1.795-1.318-1.329-2.838l-0.844-0.358c1.331-2.078,3.06-4.134,5.187-6.056C16.156,1.72,14.65,2.615,13.52,4.201C14.184,2.794,15.271,1.408,16.468,0c-1.641,1.185-3.059,2.525-3.947,4.313l0.622-2.503c-0.887,1.608-1.508,3.24-1.752,4.871l-1.306-0.535L9.864,6.324C11.016,8.402,10.418,9.498,9.842,9.877z M10.815,9.457c0.133-0.291,0.222-0.916,0.045-1.587c-0.066-0.224-0.399-1.028-0.533-1.207L12.3,7.535c-0.044,0.938-0.066,1.698,0.111,2.391c0.198,0.76,1.174,1.854,1.573,3.129c0.777,2.41,0.578,5.561,0.023,8.019l0.001-0.001c-0.089,0.402-0.377,0.894-0.731,1.341c0.133-0.246,0.244-0.492,0.31-0.76c0.555-1.989,0.798-2.904,0.533-5.095c-0.045-0.224-0.134-0.938-0.467-1.721c-0.464-1.185-1.174-2.303-1.262-2.548c-0.156-0.38-0.377-1.989-0.4-3.084c0.023,0.938,0.088,2.659,0.332,3.329c0.066,0.225,0.709,1.229,1.175,2.459c0.309,0.849,0.377,1.632,0.442,1.854c0.222,1.007-0.045,2.705-0.398,4.313c-0.11,0.581-0.423,1.252-0.821,1.766c0.223-0.313,0.399-0.715,0.533-1.185c0.267-0.938,0.377-2.145,0.353-2.905c-0.021-0.446-0.22-1.407-0.553-2.278c-0.199-0.47-0.488-0.961-0.686-1.297c-0.222-0.335-0.222-1.072-0.31-1.921c0.021,0.916-0.067,1.385,0.155,2.033c0.133,0.379,0.62,0.916,0.753,1.43c0.199,0.693,0.399,1.453,0.378,1.922c0,0.536-0.022,1.52-0.267,2.593c-0.156,0.804-0.511,1.497-1.086,1.943c0.244-0.312,0.377-0.625,0.443-0.938c0.088-0.469,0.11-0.916,0.155-1.475c0.012-0.144,0.019-0.312,0.019-0.481c0-0.428-0.047-0.845-0.132-1.247c-0.178-0.802-0.464-1.602-0.597-2.161c0.022,0.626,0.267,1.408,0.378,2.235c0.088,0.604,0.044,1.206,0.021,1.742c-0.021,0.627-0.221,1.722-0.488,2.258c-0.266-0.112-0.354-0.269-0.533-0.491c-0.221-0.291-0.354-0.604-0.487-0.962c-0.113-0.259-0.212-0.565-0.283-0.881l-0.006-0.034c-0.017-0.123-0.027-0.264-0.027-0.408c0-0.677,0.217-1.302,0.585-1.81c0.462-0.665,0.551-0.713,0.705-1.491c-0.221,0.692-0.376,0.759-0.864,1.341c-0.554,0.647-0.643,1.586-0.643,2.346c0,0.313,0.133,0.671,0.244,1.007c0.133,0.356,0.266,0.714,0.443,0.982c0.133,0.223,0.31,0.379,0.465,0.491c-0.576-0.156-1.174-0.379-1.551-0.692c-0.93-0.805-1.751-2.167-1.862-3.375c-0.088-0.982,0.797-2.413,2.061-3.128c1.064-0.626,1.307-1.319,1.529-2.459c-0.31,0.983-0.621,1.833-1.641,2.348c-1.463,0.804-2.217,2.1-2.149,3.352c0.111,1.586,0.731,2.682,1.995,3.554c0.289,0.2,0.687,0.401,1.109,0.559c-1.574-0.381-1.773-0.604-2.305-1.229c0-0.045-0.133-0.135-0.133-0.156c-0.709-0.805-1.596-2.19-1.906-3.464c-0.111-0.447-0.222-0.916-0.088-1.363c0.576-2.101,1.839-2.905,3.103-3.775c0.31-0.225,0.621-0.426,0.908-0.649c0.709-0.559,0.887-2.012,1.042-2.838c-0.288,1.006-0.598,2.258-1.153,2.659c-0.288,0.224-0.643,0.402-0.93,0.604c-1.307,0.894-2.616,1.743-3.214,3.91c-0.133,0.56-0.044,0.962,0.088,1.498c0.332,1.317,1.219,2.748,1.973,3.597l0.133,0.135c0.332,0.381,0.754,0.67,1.264,0.871c-0.479-0.115-0.899-0.274-1.294-0.474c-2.056-1.007-3.427-3.17-3.516-4.934c-0.178-3.597,1.529-4.647,3.125-5.966C8.865,11.133,10.106,10.775,10.815,9.457z"></path>
</svg>
