<svg xmlns="http://www.w3.org/2000/svg" viewBox="0 0 32 32" id="history">
  <path d="m15.92,4c-3.86,0-7.39,1.81-9.64,4.78v-1.53c0-.55-.45-1-1-1s-1,.45-1,1v4.58c0,.55.45,1,1,1h4.62c.55,0,1-.45,1-1s-.45-1-1-1h-2.6c1.81-2.97,5.05-4.83,8.62-4.83,5.56,0,10.08,4.49,10.08,10s-4.52,10-10.08,10c-4.93,0-9.11-3.49-9.94-8.31-.09-.54-.6-.91-1.15-.82-.54.09-.91.61-.82,1.15.99,5.78,6,9.97,11.91,9.97,6.66,0,12.08-5.38,12.08-12s-5.42-12-12.08-12Z" fill="#00aa9f" class="color000000 svgShape"></path>
  <path d="m16,10.19c-.55,0-1,.45-1,1v4.81c0,.38.21.72.55.89l4.48,2.29c.15.07.3.11.45.11.36,0,.71-.2.89-.55.25-.49.06-1.09-.44-1.34l-3.94-2.01v-4.2c0-.55-.45-1-1-1Z" fill="#00aa9f" class="color000000 svgShape"></path>
</svg>
