<svg xmlns="http://www.w3.org/2000/svg" viewBox="0 0 48 48" id="Library">
  <path d="M10.15.5C7.48.5 5.31 2.67 5.31 5.34v37.31c0 2.67 2.17 4.84 4.84 4.84h31.03c.83 0 1.5-.67 1.5-1.5V2c0-.83-.67-1.5-1.5-1.5H10.15zM8.31 42.66V5.34c0-1.02.83-1.84 1.84-1.84h3.98v41h-3.98c-1.01 0-1.84-.83-1.84-1.84zm31.38 1.84H17.13v-41h22.56v41z" fill="#fed607" class="color000000 svgShape"></path>
  <path d="M21.01 18.73h14.5v3h-14.5zM21.01 26.27h14.5v3h-14.5z" fill="#fed607" class="color000000 svgShape"></path>
</svg>
