<svg xmlns="http://www.w3.org/2000/svg" viewBox="0 0 512 512" id="Menu">
  <path d="M461.503,446.477h-171.166s-102.694,0-102.694,0c-19.021,0-34.497-15.476-34.497-34.498v-37.667c0-19.021,15.476-34.497,34.497-34.497H461.503c19.021,0,34.497,15.476,34.497,34.497v37.667c0,19.022-15.476,34.498-34.497,34.498Zm-171.166-30.001h171.166c2.438,0,4.497-2.059,4.497-4.497v-37.667c0-2.438-2.06-4.497-4.497-4.497H187.643c-2.438,0-4.497,2.06-4.497,4.497v37.667c0,2.438,2.06,4.498,4.497,4.498h102.694Zm-202.173,29.999H50.497c-19.021,0-34.497-15.476-34.497-34.497v-37.667c0-19.021,15.476-34.497,34.497-34.497h37.667c19.021,0,34.497,15.476,34.497,34.497v37.667c0,19.021-15.476,34.497-34.497,34.497Zm-37.667-76.661c-2.438,0-4.497,2.06-4.497,4.497v37.667c0,2.438,2.06,4.497,4.497,4.497h37.667c2.438,0,4.497-2.06,4.497-4.497v-37.667c0-2.438-2.06-4.497-4.497-4.497H50.497Zm411.006-60.484H187.643c-19.021,0-34.497-15.476-34.497-34.497v-37.667c0-19.021,15.476-34.497,34.497-34.497H461.503c19.021,0,34.497,15.476,34.497,34.497v37.667c0,19.021-15.476,34.497-34.497,34.497ZM187.643,232.669c-2.438,0-4.497,2.06-4.497,4.497v37.667c0,2.438,2.06,4.497,4.497,4.497H461.503c2.438,0,4.497-2.06,4.497-4.497v-37.667c0-2.438-2.06-4.497-4.497-4.497H187.643Zm-99.479,76.661H50.497c-19.021,0-34.497-15.476-34.497-34.498v-37.667c0-19.021,15.476-34.497,34.497-34.497h37.667c19.021,0,34.497,15.476,34.497,34.497v37.667c0,19.022-15.476,34.498-34.497,34.498Zm-37.667-76.662c-2.438,0-4.497,2.06-4.497,4.497v37.667c0,2.438,2.06,4.498,4.497,4.498h37.667c2.438,0,4.497-2.06,4.497-4.498v-37.667c0-2.438-2.06-4.497-4.497-4.497H50.497Zm411.006-60.483H187.643c-19.021,0-34.497-15.476-34.497-34.497v-37.667c0-19.022,15.476-34.498,34.497-34.498H461.503c19.021,0,34.497,15.476,34.497,34.498v37.667c0,19.021-15.476,34.497-34.497,34.497ZM187.643,95.523c-2.438,0-4.497,2.06-4.497,4.498v37.667c0,2.438,2.06,4.497,4.497,4.497H461.503c2.438,0,4.497-2.06,4.497-4.497v-37.667c0-2.438-2.06-4.498-4.497-4.498H187.643Zm-99.479,76.661H50.497c-19.021,0-34.497-15.476-34.497-34.497v-37.667c0-19.021,15.476-34.497,34.497-34.497h37.667c19.021,0,34.497,15.476,34.497,34.497v37.667c0,19.021-15.476,34.497-34.497,34.497ZM50.497,95.523c-2.438,0-4.497,2.06-4.497,4.497v37.667c0,2.438,2.06,4.497,4.497,4.497h37.667c2.438,0,4.497-2.06,4.497-4.497v-37.667c0-2.438-2.06-4.497-4.497-4.497H50.497Z" fill="#00aa9f" class="color000000 svgShape"></path>
</svg>
