<svg xmlns="http://www.w3.org/2000/svg" fill-rule="evenodd" stroke-linejoin="round" stroke-miterlimit="2" clip-rule="evenodd" viewBox="0 0 72 72" id="star">
  <g transform="translate(-1152 -972)" fill="#00aa9f" class="color000000 svgShape">
    <path d="M1193.93,995.885L1191.88,1001.08C1189.93,1006.02 1186.02,1009.93 1181.08,1011.88L1175.88,1013.93C1174.04,1014.66 1172.83,1016.44 1172.83,1018.42C1172.83,1020.4 1174.04,1022.18 1175.88,1022.9L1181.08,1024.95C1186.02,1026.9 1189.93,1030.81 1191.88,1035.75L1193.93,1040.95C1194.66,1042.79 1196.43,1044 1198.42,1044C1200.4,1044 1202.18,1042.79 1202.9,1040.95L1204.95,1035.75C1206.9,1030.81 1210.81,1026.9 1215.75,1024.95L1220.95,1022.9C1222.79,1022.18 1224,1020.4 1224,1018.42C1224,1016.44 1222.79,1014.66 1220.95,1013.93L1215.75,1011.88C1210.81,1009.93 1206.9,1006.02 1204.95,1001.08L1202.9,995.885C1202.18,994.043 1200.4,992.832 1198.42,992.832C1196.43,992.832 1194.66,994.043 1193.93,995.885ZM1197.65,997.353C1197.77,997.038 1198.08,996.832 1198.42,996.832C1198.75,996.832 1199.06,997.038 1199.18,997.353C1199.18,997.353 1201.23,1002.55 1201.23,1002.55C1203.59,1008.52 1208.31,1013.25 1214.29,1015.6C1214.29,1015.6 1219.48,1017.65 1219.48,1017.65C1219.79,1017.77 1220,1018.08 1220,1018.42C1220,1018.75 1219.79,1019.06 1219.48,1019.18C1219.48,1019.18 1214.29,1021.23 1214.29,1021.23C1208.31,1023.59 1203.59,1028.31 1201.23,1034.29C1201.23,1034.29 1199.18,1039.48 1199.18,1039.48C1199.06,1039.79 1198.75,1040 1198.42,1040C1198.08,1040 1197.77,1039.79 1197.65,1039.48C1197.65,1039.48 1195.6,1034.29 1195.6,1034.29C1193.25,1028.31 1188.52,1023.59 1182.55,1021.23C1182.55,1021.23 1177.35,1019.18 1177.35,1019.18C1177.04,1019.06 1176.83,1018.75 1176.83,1018.42C1176.83,1018.08 1177.04,1017.77 1177.35,1017.65C1177.35,1017.65 1182.55,1015.6 1182.55,1015.6C1188.52,1013.25 1193.25,1008.52 1195.6,1002.55L1197.65,997.353ZM1167.64,974.149L1165.26,980.187C1164.34,982.507 1162.51,984.343 1160.19,985.257C1158.22,986.032 1155.96,986.926 1154.15,987.639C1152.85,988.15 1152,989.403 1152,990.797C1152,992.191 1152.85,993.443 1154.15,993.955L1160.19,996.336C1162.51,997.251 1164.34,999.087 1165.26,1001.41C1166.03,1003.37 1166.93,1005.64 1167.64,1007.44C1168.15,1008.74 1169.4,1009.59 1170.8,1009.59C1172.19,1009.59 1173.44,1008.74 1173.95,1007.44L1176.34,1001.41C1177.25,999.087 1179.09,997.251 1181.41,996.336C1183.37,995.562 1185.64,994.668 1187.44,993.955C1188.74,993.443 1189.59,992.191 1189.59,990.797C1189.59,989.403 1188.74,988.15 1187.44,987.639L1181.41,985.257C1179.09,984.343 1177.25,982.507 1176.34,980.187C1175.56,978.224 1174.67,975.957 1173.95,974.149C1173.44,972.852 1172.19,972 1170.8,972C1169.4,972 1168.15,972.852 1167.64,974.149ZM1170.8,977.044L1172.62,981.655C1173.94,985.005 1176.59,987.657 1179.94,988.978L1184.55,990.797L1179.94,992.615C1176.59,993.936 1173.94,996.588 1172.62,999.939L1170.8,1004.55L1168.98,999.939C1167.66,996.588 1165.01,993.936 1161.65,992.615L1157.04,990.797L1161.65,988.978C1165.01,987.657 1167.66,985.005 1168.98,981.655L1170.8,977.044Z" fill="#00aa9f" class="color000000 svgShape"></path>
  </g>
</svg>
