<svg xmlns="http://www.w3.org/2000/svg" viewBox="0 0 512 512" id="LoveLetter">
  <path d="M495.957 485.98c0-333.691.244-320.703-.469-323.013a10.012 10.012 0 0 0-8.674-6.909c-.781-.068-58.373-.039-80.847-.044V26.028c0-5.519-4.473-10.001-10.002-10.001H116.002c-5.528 0-10.002 4.482-10.002 10.001v129.987c-22.805.005-79.518-.01-80.309.015-4.952.166-9.055 3.896-9.611 8.867-.078.664-.137 321.132.029 322.372a9.93 9.93 0 0 0 1.836 4.602c.059.088.107.166.176.244.02.039.049.059.078.098a10.044 10.044 0 0 0 7.814 3.76c473.146-.02 460.225.05 461.221-.088 4.983-.636 8.723-4.904 8.723-9.905zm-93.846-77.887c-4.357-3.389-10.646-2.606-14.035 1.759-3.39 4.355-2.607 10.635 1.758 14.024l66.979 52.104H55.156l66.979-52.104a9.988 9.988 0 0 0 1.758-14.024c-3.389-4.365-9.668-5.146-14.034-1.759L36.014 465.53V187.956l213.408 185.583a10.004 10.004 0 0 0 13.125 0l213.418-185.583v277.573l-73.854-57.436zm57.114-232.081-53.256 46.309v-46.309h53.256zM385.967 36.029v203.68L255.984 352.736 126.002 239.709V36.029h259.965zM106 222.32l-53.256-46.309H106v46.309z" fill="#00aa9f" class="color000000 svgShape"></path>
  <path d="M66.007 345.998h19.992v19.99H66.007zM106 345.998h20.002v19.99H106zM145.994 345.998h20.002v19.99h-20.002zM345.973 345.998h20.002v19.99h-20.002zM385.967 345.998h20.002v19.99h-20.002zM425.971 345.998h19.992v19.99h-19.992zM248.25 253.968c4.043 4.669 11.309 4.601 15.255-.146 70.671-85.026 69.097-83.132 69.214-83.288 15.461-19.357 15.461-49.683 0-69.039-16.387-20.529-44.191-20.773-60.775 0l-17.501 21.926-16.135-20.207c-16.388-20.529-44.193-20.773-60.776 0-15.45 19.357-15.45 49.682 0 69.039.252.311-2.258-2.599 70.718 81.715zm-55.094-138.279c8.478-10.611 21.066-10.592 29.524 0l23.947 29.998c4.005 5.01 11.632 5.01 15.626 0l25.313-31.712c8.479-10.616 21.066-10.597 29.525 0 9.521 11.925 9.541 32.054.06 44.013l-61.49 73.979-62.613-72.335c-9.423-11.967-9.384-32.042.108-43.943z" fill="#00aa9f" class="color000000 svgShape"></path>
</svg>
