<svg xmlns="http://www.w3.org/2000/svg" viewBox="0 0 64 64" id="FullScreen">
  <path fill="#34d399" d="M54.18 21.36a2 2 0 0 1-2-2V12.82a1 1 0 0 0-1-1H44.64a2 2 0 0 1 0-4h6.54a5 5 0 0 1 5 5v6.54A2 2 0 0 1 54.18 21.36zM51.18 56.18H44.64a2 2 0 0 1 0-4h6.54a1 1 0 0 0 1-1V44.64a2 2 0 0 1 4 0v6.54A5 5 0 0 1 51.18 56.18zM9.82 21.36a2 2 0 0 1-2-2V12.82a5 5 0 0 1 5-5h6.54a2 2 0 0 1 0 4H12.82a1 1 0 0 0-1 1v6.54A2 2 0 0 1 9.82 21.36zM19.36 56.18H12.82a5 5 0 0 1-5-5V44.64a2 2 0 0 1 4 0v6.54a1 1 0 0 0 1 1h6.54a2 2 0 0 1 0 4z" class="color20263b svgShape"></path>
  <path fill="#07ffa5" d="M45.05,47.79a2,2,0,0,1-1.45-.63L17.5,19.59a2,2,0,1,1,2.9-2.75L46.5,44.41a2,2,0,0,1-1.45,3.38Z" class="colorff4b07 svgShape"></path>
  <path fill="#07ffa5" d="M19,47.79a2,2,0,0,1-1.45-3.38L43.6,16.84a2,2,0,1,1,2.9,2.75L20.4,47.16A2,2,0,0,1,19,47.79Z" class="colorff4b07 svgShape"></path>
</svg>
